<svg width="286" height="54" viewBox="0 0 286 54" fill="none" xmlns="http://www.w3.org/2000/svg">
<mask id="path-1-outside-1_73_16" maskUnits="userSpaceOnUse" x="-3" y="-2.69275" width="292" height="60" fill="black">
<rect fill="white" x="-3" y="-2.69275" width="292" height="60"/>
<path d="M0.46875 1.89319H21.7031C26.8828 1.89319 31.1719 3.52209 34.5703 6.77991C37.9922 10.0143 39.7031 14.0338 39.7031 18.8385C39.7031 23.6198 38.0039 27.6393 34.6055 30.8971C31.207 34.1315 26.9062 35.7487 21.7031 35.7487H11.2969V52.3073H0.46875V1.89319ZM21.3516 11.6315H11.2969V26.0104H21.3516C23.5078 26.0104 25.3008 25.319 26.7305 23.9362C28.1836 22.5533 28.9102 20.8541 28.9102 18.8385C28.9102 16.8229 28.1836 15.1237 26.7305 13.7408C25.3008 12.3346 23.5078 11.6315 21.3516 11.6315ZM62.4141 15.358C59.2734 18.5455 57.7031 22.4713 57.7031 27.1354C57.7031 31.776 59.2734 35.6901 62.4141 38.8776C65.5547 42.0651 69.375 43.6588 73.875 43.6588C78.3984 43.6588 82.2305 42.0651 85.3711 38.8776C88.5117 35.6901 90.082 31.776 90.082 27.1354C90.082 22.4713 88.5117 18.5455 85.3711 15.358C82.2305 12.1471 78.3984 10.5416 73.875 10.5416C69.375 10.5416 65.5547 12.1471 62.4141 15.358ZM54.4336 45.6979C49.1602 40.5416 46.5234 34.3424 46.5234 27.1002C46.5234 19.858 49.1602 13.6705 54.4336 8.53772C59.7305 3.40491 66.2109 0.838501 73.875 0.838501C81.5625 0.838501 88.043 3.40491 93.3164 8.53772C98.6133 13.6705 101.262 19.858 101.262 27.1002C101.262 34.3424 98.6133 40.5416 93.3164 45.6979C88.043 50.8307 81.5625 53.3971 73.875 53.3971C66.2109 53.3971 59.7305 50.8307 54.4336 45.6979ZM111.352 52.3073V1.89319H133.676C138.668 1.89319 142.793 3.49866 146.051 6.70959C149.332 9.89709 150.973 13.8112 150.973 18.4518C150.973 20.4674 150.656 22.3541 150.023 24.1119C149.391 25.8698 148.641 27.2877 147.773 28.3658C146.93 29.444 146.062 30.3698 145.172 31.1432C144.281 31.9166 143.52 32.444 142.887 32.7252L141.973 33.2174L152.766 52.3073H141.234L131.531 34.6588H122.18V52.3073H111.352ZM140.18 18.4518C140.18 16.483 139.523 14.8541 138.211 13.5651C136.922 12.276 135.293 11.6315 133.324 11.6315H122.18V24.9557H133.324C135.293 24.9557 136.922 24.3346 138.211 23.0924C139.523 21.8268 140.18 20.2799 140.18 18.4518ZM155.965 1.89319H195.551V11.6315H181.172V52.3073H170.379V11.6315H155.965V1.89319ZM225.047 31.0729L218.93 14.5143L212.777 31.0729H225.047ZM228.633 40.4244H209.191L204.867 52.3073H193.336L213.164 1.89319H224.66L244.488 52.3073H232.957L228.633 40.4244ZM285.902 52.3073H251.695V1.89319H262.523V42.6041H285.902V52.3073Z"/>
</mask>
<path d="M0.46875 1.89319H21.7031C26.8828 1.89319 31.1719 3.52209 34.5703 6.77991C37.9922 10.0143 39.7031 14.0338 39.7031 18.8385C39.7031 23.6198 38.0039 27.6393 34.6055 30.8971C31.207 34.1315 26.9062 35.7487 21.7031 35.7487H11.2969V52.3073H0.46875V1.89319ZM21.3516 11.6315H11.2969V26.0104H21.3516C23.5078 26.0104 25.3008 25.319 26.7305 23.9362C28.1836 22.5533 28.9102 20.8541 28.9102 18.8385C28.9102 16.8229 28.1836 15.1237 26.7305 13.7408C25.3008 12.3346 23.5078 11.6315 21.3516 11.6315ZM62.4141 15.358C59.2734 18.5455 57.7031 22.4713 57.7031 27.1354C57.7031 31.776 59.2734 35.6901 62.4141 38.8776C65.5547 42.0651 69.375 43.6588 73.875 43.6588C78.3984 43.6588 82.2305 42.0651 85.3711 38.8776C88.5117 35.6901 90.082 31.776 90.082 27.1354C90.082 22.4713 88.5117 18.5455 85.3711 15.358C82.2305 12.1471 78.3984 10.5416 73.875 10.5416C69.375 10.5416 65.5547 12.1471 62.4141 15.358ZM54.4336 45.6979C49.1602 40.5416 46.5234 34.3424 46.5234 27.1002C46.5234 19.858 49.1602 13.6705 54.4336 8.53772C59.7305 3.40491 66.2109 0.838501 73.875 0.838501C81.5625 0.838501 88.043 3.40491 93.3164 8.53772C98.6133 13.6705 101.262 19.858 101.262 27.1002C101.262 34.3424 98.6133 40.5416 93.3164 45.6979C88.043 50.8307 81.5625 53.3971 73.875 53.3971C66.2109 53.3971 59.7305 50.8307 54.4336 45.6979ZM111.352 52.3073V1.89319H133.676C138.668 1.89319 142.793 3.49866 146.051 6.70959C149.332 9.89709 150.973 13.8112 150.973 18.4518C150.973 20.4674 150.656 22.3541 150.023 24.1119C149.391 25.8698 148.641 27.2877 147.773 28.3658C146.93 29.444 146.062 30.3698 145.172 31.1432C144.281 31.9166 143.52 32.444 142.887 32.7252L141.973 33.2174L152.766 52.3073H141.234L131.531 34.6588H122.18V52.3073H111.352ZM140.18 18.4518C140.18 16.483 139.523 14.8541 138.211 13.5651C136.922 12.276 135.293 11.6315 133.324 11.6315H122.18V24.9557H133.324C135.293 24.9557 136.922 24.3346 138.211 23.0924C139.523 21.8268 140.18 20.2799 140.18 18.4518ZM155.965 1.89319H195.551V11.6315H181.172V52.3073H170.379V11.6315H155.965V1.89319ZM225.047 31.0729L218.93 14.5143L212.777 31.0729H225.047ZM228.633 40.4244H209.191L204.867 52.3073H193.336L213.164 1.89319H224.66L244.488 52.3073H232.957L228.633 40.4244ZM285.902 52.3073H251.695V1.89319H262.523V42.6041H285.902V52.3073Z" fill="#ECF2F8"/>
<path d="M0.46875 1.89319V-1.10681H-2.53125V1.89319H0.46875ZM34.5703 6.77991L32.4943 8.94556L32.5019 8.95287L32.5096 8.96012L34.5703 6.77991ZM34.6055 30.8971L36.6737 33.0702L36.6815 33.0627L34.6055 30.8971ZM11.2969 35.7487V32.7487H8.29688V35.7487H11.2969ZM11.2969 52.3073V55.3073H14.2969V52.3073H11.2969ZM0.46875 52.3073H-2.53125V55.3073H0.46875V52.3073ZM11.2969 11.6315V8.63147H8.29688V11.6315H11.2969ZM11.2969 26.0104H8.29688V29.0104H11.2969V26.0104ZM26.7305 23.9362L24.6624 21.7629L24.6536 21.7713L24.6448 21.7798L26.7305 23.9362ZM26.7305 13.7408L24.6268 15.8796L24.6444 15.897L24.6624 15.9141L26.7305 13.7408ZM0.46875 4.89319H21.7031V-1.10681H0.46875V4.89319ZM21.7031 4.89319C26.1938 4.89319 29.7126 6.27902 32.4943 8.94556L36.6464 4.61425C32.6311 0.765167 27.5719 -1.10681 21.7031 -1.10681V4.89319ZM32.5096 8.96012C35.3182 11.6149 36.7031 14.8397 36.7031 18.8385H42.7031C42.7031 13.2279 40.6662 8.41371 36.6311 4.5997L32.5096 8.96012ZM36.7031 18.8385C36.7031 22.8166 35.3273 26.0494 32.5294 28.7314L36.6815 33.0627C40.6805 29.2292 42.7031 24.423 42.7031 18.8385H36.7031ZM32.5373 28.724C29.7594 31.3677 26.2276 32.7487 21.7031 32.7487V38.7487C27.5849 38.7487 32.6547 36.8952 36.6737 33.0702L32.5373 28.724ZM21.7031 32.7487H11.2969V38.7487H21.7031V32.7487ZM8.29688 35.7487V52.3073H14.2969V35.7487H8.29688ZM11.2969 49.3073H0.46875V55.3073H11.2969V49.3073ZM3.46875 52.3073V1.89319H-2.53125V52.3073H3.46875ZM21.3516 8.63147H11.2969V14.6315H21.3516V8.63147ZM8.29688 11.6315V26.0104H14.2969V11.6315H8.29688ZM11.2969 29.0104H21.3516V23.0104H11.2969V29.0104ZM21.3516 29.0104C24.2143 29.0104 26.7774 28.0644 28.8161 26.0925L24.6448 21.7798C23.8242 22.5735 22.8013 23.0104 21.3516 23.0104V29.0104ZM28.7986 26.1094C30.85 24.1572 31.9102 21.6711 31.9102 18.8385H25.9102C25.9102 20.0372 25.5172 20.9495 24.6624 21.7629L28.7986 26.1094ZM31.9102 18.8385C31.9102 16.0059 30.85 13.5198 28.7986 11.5676L24.6624 15.9141C25.5172 16.7275 25.9102 17.6398 25.9102 18.8385H31.9102ZM28.8342 11.6021C26.7985 9.59974 24.2296 8.63147 21.3516 8.63147V14.6315C22.7861 14.6315 23.8031 15.0695 24.6268 15.8796L28.8342 11.6021ZM62.4141 15.358L64.551 17.4636L64.5587 17.4557L62.4141 15.358ZM85.3711 15.358L83.2264 17.4558L83.2341 17.4636L85.3711 15.358ZM54.4336 45.6979L52.3362 47.8429L52.3459 47.8523L54.4336 45.6979ZM54.4336 8.53772L52.3459 6.38329L52.3411 6.38793L54.4336 8.53772ZM93.3164 8.53772L91.2239 10.6875L91.2287 10.6921L93.3164 8.53772ZM93.3164 45.6979L95.4089 47.8477L95.409 47.8475L93.3164 45.6979ZM60.2771 13.2525C56.5579 17.0271 54.7031 21.7204 54.7031 27.1354H60.7031C60.7031 23.2222 61.9889 20.0639 64.551 17.4636L60.2771 13.2525ZM54.7031 27.1354C54.7031 32.5314 56.561 37.2116 60.2771 40.9831L64.551 36.772C61.9859 34.1685 60.7031 31.0206 60.7031 27.1354H54.7031ZM60.2771 40.9831C63.9851 44.7465 68.5768 46.6588 73.875 46.6588V40.6588C70.1732 40.6588 67.1243 39.3836 64.551 36.772L60.2771 40.9831ZM73.875 46.6588C79.1919 46.6588 83.7967 44.7498 87.5081 40.9831L83.2341 36.772C80.6642 39.3803 77.6049 40.6588 73.875 40.6588V46.6588ZM87.5081 40.9831C91.2241 37.2116 93.082 32.5314 93.082 27.1354H87.082C87.082 31.0206 85.7993 34.1685 83.2341 36.772L87.5081 40.9831ZM93.082 27.1354C93.082 21.7204 91.2272 17.0271 87.5081 13.2525L83.2341 17.4636C85.7962 20.0639 87.082 23.2222 87.082 27.1354H93.082ZM87.5158 13.2603C83.8062 9.46774 79.1991 7.54163 73.875 7.54163V13.5416C77.5978 13.5416 80.6547 14.8265 83.2264 17.4557L87.5158 13.2603ZM73.875 7.54163C68.5696 7.54163 63.9756 9.47112 60.2694 13.2603L64.5587 17.4557C67.1338 14.8231 70.1804 13.5416 73.875 13.5416V7.54163ZM56.5309 43.5529C51.8228 38.9493 49.5234 33.5185 49.5234 27.1002H43.5234C43.5234 35.1663 46.4975 42.1339 52.3362 47.8429L56.5309 43.5529ZM49.5234 27.1002C49.5234 20.6823 51.8223 15.2658 56.5261 10.6875L52.3411 6.38793C46.498 12.0752 43.5234 19.0337 43.5234 27.1002H49.5234ZM56.5213 10.6921C61.2347 6.12474 66.9564 3.8385 73.875 3.8385V-2.1615C65.4654 -2.1615 58.2263 0.685076 52.3459 6.3833L56.5213 10.6921ZM73.875 3.8385C80.8196 3.8385 86.5378 6.12628 91.2239 10.6875L95.4089 6.38793C89.5482 0.683531 82.3054 -2.1615 73.875 -2.1615V3.8385ZM91.2287 10.6921C95.9546 15.2716 98.2617 20.6868 98.2617 27.1002H104.262C104.262 19.0293 101.272 12.0694 95.4041 6.3833L91.2287 10.6921ZM98.2617 27.1002C98.2617 33.5141 95.9541 38.9435 91.2238 43.5482L95.409 47.8475C101.272 42.1397 104.262 35.1707 104.262 27.1002H98.2617ZM91.2239 43.5481C86.5378 48.1093 80.8196 50.3971 73.875 50.3971V56.3971C82.3054 56.3971 89.5482 53.5521 95.4089 47.8477L91.2239 43.5481ZM73.875 50.3971C66.9564 50.3971 61.2347 48.1109 56.5213 43.5435L52.3459 47.8523C58.2263 53.5505 65.4654 56.3971 73.875 56.3971V50.3971ZM111.352 52.3073H108.352V55.3073H111.352V52.3073ZM111.352 1.89319V-1.10681H108.352V1.89319H111.352ZM146.051 6.70959L143.945 8.84623L143.953 8.85386L143.96 8.86143L146.051 6.70959ZM147.773 28.3658L145.436 26.4856L145.423 26.5012L145.411 26.5169L147.773 28.3658ZM142.887 32.7252L141.668 29.9838L141.564 30.0299L141.464 30.0838L142.887 32.7252ZM141.973 33.2174L140.55 30.576L137.854 32.0279L139.361 34.6939L141.973 33.2174ZM152.766 52.3073V55.3073H157.908L155.377 50.8308L152.766 52.3073ZM141.234 52.3073L138.605 53.7526L139.46 55.3073H141.234V52.3073ZM131.531 34.6588L134.16 33.2135L133.305 31.6588H131.531V34.6588ZM122.18 34.6588V31.6588H119.18V34.6588H122.18ZM122.18 52.3073V55.3073H125.18V52.3073H122.18ZM138.211 13.5651L136.09 15.6864L136.099 15.6959L136.109 15.7054L138.211 13.5651ZM122.18 11.6315V8.63147H119.18V11.6315H122.18ZM122.18 24.9557H119.18V27.9557H122.18V24.9557ZM138.211 23.0924L140.293 25.2526L140.293 25.2519L138.211 23.0924ZM114.352 52.3073V1.89319H108.352V52.3073H114.352ZM111.352 4.89319H133.676V-1.10681H111.352V4.89319ZM133.676 4.89319C137.959 4.89319 141.302 6.24169 143.945 8.84623L148.157 4.57296C144.284 0.755627 139.377 -1.10681 133.676 -1.10681V4.89319ZM143.96 8.86143C146.651 11.4749 147.973 14.6087 147.973 18.4518H153.973C153.973 13.0136 152.013 8.31929 148.141 4.55776L143.96 8.86143ZM147.973 18.4518C147.973 20.1484 147.707 21.6887 147.201 23.0958L152.846 25.1281C153.605 23.0195 153.973 20.7864 153.973 18.4518H147.973ZM147.201 23.0958C146.644 24.643 146.036 25.7396 145.436 26.4856L150.111 30.2461C151.245 28.8359 152.137 27.0965 152.846 25.1281L147.201 23.0958ZM145.411 26.5169C144.667 27.4674 143.93 28.2485 143.205 28.8781L147.139 33.4083C148.195 32.491 149.192 31.4205 150.136 30.2148L145.411 26.5169ZM143.205 28.8781C142.405 29.573 141.904 29.8789 141.668 29.9838L144.105 35.4667C145.135 35.0091 146.158 34.2602 147.139 33.4083L143.205 28.8781ZM141.464 30.0838L140.55 30.576L143.395 35.8588L144.309 35.3666L141.464 30.0838ZM139.361 34.6939L150.154 53.7837L155.377 50.8308L144.584 31.7409L139.361 34.6939ZM152.766 49.3073H141.234V55.3073H152.766V49.3073ZM143.863 50.8619L134.16 33.2135L128.902 36.1042L138.605 53.7526L143.863 50.8619ZM131.531 31.6588H122.18V37.6588H131.531V31.6588ZM119.18 34.6588V52.3073H125.18V34.6588H119.18ZM122.18 49.3073H111.352V55.3073H122.18V49.3073ZM143.18 18.4518C143.18 15.7407 142.243 13.3203 140.313 11.4247L136.109 15.7054C136.804 16.3879 137.18 17.2253 137.18 18.4518H143.18ZM140.332 11.4437C138.433 9.54427 136.018 8.63147 133.324 8.63147V14.6315C134.568 14.6315 135.411 15.0077 136.09 15.6864L140.332 11.4437ZM133.324 8.63147H122.18V14.6315H133.324V8.63147ZM119.18 11.6315V24.9557H125.18V11.6315H119.18ZM122.18 27.9557H133.324V21.9557H122.18V27.9557ZM133.324 27.9557C135.985 27.9557 138.386 27.0896 140.293 25.2526L136.129 20.9322C135.457 21.5796 134.601 21.9557 133.324 21.9557V27.9557ZM140.293 25.2519C142.194 23.4192 143.18 21.092 143.18 18.4518H137.18C137.18 19.4678 136.853 20.2344 136.129 20.9329L140.293 25.2519ZM155.965 1.89319V-1.10681H152.965V1.89319H155.965ZM195.551 1.89319H198.551V-1.10681H195.551V1.89319ZM195.551 11.6315V14.6315H198.551V11.6315H195.551ZM181.172 11.6315V8.63147H178.172V11.6315H181.172ZM181.172 52.3073V55.3073H184.172V52.3073H181.172ZM170.379 52.3073H167.379V55.3073H170.379V52.3073ZM170.379 11.6315H173.379V8.63147H170.379V11.6315ZM155.965 11.6315H152.965V14.6315H155.965V11.6315ZM155.965 4.89319H195.551V-1.10681H155.965V4.89319ZM192.551 1.89319V11.6315H198.551V1.89319H192.551ZM195.551 8.63147H181.172V14.6315H195.551V8.63147ZM178.172 11.6315V52.3073H184.172V11.6315H178.172ZM181.172 49.3073H170.379V55.3073H181.172V49.3073ZM173.379 52.3073V11.6315H167.379V52.3073H173.379ZM170.379 8.63147H155.965V14.6315H170.379V8.63147ZM158.965 11.6315V1.89319H152.965V11.6315H158.965ZM225.047 31.0729V34.0729H229.353L227.861 30.0333L225.047 31.0729ZM218.93 14.5143L221.744 13.4747L218.938 5.87899L216.118 13.4694L218.93 14.5143ZM212.777 31.0729L209.965 30.028L208.462 34.0729H212.777V31.0729ZM228.633 40.4244L231.452 39.3985L230.734 37.4244H228.633V40.4244ZM209.191 40.4244V37.4244H207.091L206.372 39.3985L209.191 40.4244ZM204.867 52.3073V55.3073H206.968L207.686 53.3332L204.867 52.3073ZM193.336 52.3073L190.544 51.2092L188.932 55.3073H193.336V52.3073ZM213.164 1.89319V-1.10681H211.12L210.372 0.795147L213.164 1.89319ZM224.66 1.89319L227.452 0.795147L226.704 -1.10681H224.66V1.89319ZM244.488 52.3073V55.3073H248.892L247.28 51.2092L244.488 52.3073ZM232.957 52.3073L230.138 53.3332L230.856 55.3073H232.957V52.3073ZM227.861 30.0333L221.744 13.4747L216.116 15.5539L222.233 32.1125L227.861 30.0333ZM216.118 13.4694L209.965 30.028L215.59 32.1177L221.742 15.5591L216.118 13.4694ZM212.777 34.0729H225.047V28.0729H212.777V34.0729ZM228.633 37.4244H209.191V43.4244H228.633V37.4244ZM206.372 39.3985L202.048 51.2813L207.686 53.3332L212.011 41.4503L206.372 39.3985ZM204.867 49.3073H193.336V55.3073H204.867V49.3073ZM196.128 53.4053L215.956 2.99123L210.372 0.795147L190.544 51.2092L196.128 53.4053ZM213.164 4.89319H224.66V-1.10681H213.164V4.89319ZM221.868 2.99123L241.696 53.4053L247.28 51.2092L227.452 0.795147L221.868 2.99123ZM244.488 49.3073H232.957V55.3073H244.488V49.3073ZM235.776 51.2813L231.452 39.3985L225.814 41.4503L230.138 53.3332L235.776 51.2813ZM285.902 52.3073V55.3073H288.902V52.3073H285.902ZM251.695 52.3073H248.695V55.3073H251.695V52.3073ZM251.695 1.89319V-1.10681H248.695V1.89319H251.695ZM262.523 1.89319H265.523V-1.10681H262.523V1.89319ZM262.523 42.6041H259.523V45.6041H262.523V42.6041ZM285.902 42.6041H288.902V39.6041H285.902V42.6041ZM285.902 49.3073H251.695V55.3073H285.902V49.3073ZM254.695 52.3073V1.89319H248.695V52.3073H254.695ZM251.695 4.89319H262.523V-1.10681H251.695V4.89319ZM259.523 1.89319V42.6041H265.523V1.89319H259.523ZM262.523 45.6041H285.902V39.6041H262.523V45.6041ZM282.902 42.6041V52.3073H288.902V42.6041H282.902Z" fill="white" mask="url(#path-1-outside-1_73_16)"/>
</svg>
